<?xml version="1.0" encoding="utf-8"?>
<!-- Generator: Adobe Illustrator 22.1.0, SVG Export Plug-In . SVG Version: 6.00 Build 0)  -->
<svg version="1.1" id="Слой_1" xmlns="http://www.w3.org/2000/svg" xmlns:xlink="http://www.w3.org/1999/xlink" x="0px" y="0px"
	 viewBox="0 0 120 120" style="enable-background:new 0 0 120 120;" xml:space="preserve">
<style type="text/css">
	.st0{fill:#E94E1B;stroke:#1D1D1B;stroke-width:0.2835;stroke-miterlimit:10;}
	.st1{fill:#333333;stroke:#1D1D1B;stroke-width:0.2835;stroke-miterlimit:10;}
	.st2{fill:#66CCFF;}
</style>
<path class="st0" d="M60,0"/>
<path class="st0" d="M0,60"/>
<path class="st0" d="M60,0"/>
<path class="st0" d="M120,60"/>
<path class="st0" d="M120,60"/>
<path class="st0" d="M60,120"/>
<path class="st0" d="M60,120"/>
<path class="st0" d="M0,60"/>
<rect x="17.4" y="17.7" transform="matrix(0.7071 0.7071 -0.7071 0.7071 60.1617 -24.7432)" class="st1" width="85.1" height="85.1"/>
<g>
	<path class="st2" d="M96.4,61.6c-2.2,8.3-6.9,15.6-13.3,21.1c-0.6,0-1.3,0-1.9,0c-8.8,0-13.8-5.5-16.2-9.7l8-4.8
		c0,0,2.7,5.8,7.8,5.8c5.1,0,7.2-1.7,7.2-5.6c0-4.8-16.5-6.5-19.1-14.7s0.9-19.8,12.8-18.9c7.5,0.5,11.7,4.2,13.8,6.9l-8,5.7
		c-1.7-4.9-8.7-4.9-10.1-0.9c-1.4,4.1,3.2,6.5,10.4,8.9C91.6,56.6,94.6,58.9,96.4,61.6z"/>
	<polygon class="st2" points="62.8,36.1 26.5,36.1 26.5,44.6 39.8,44.6 39.8,81.8 49.5,81.8 49.5,44.6 62.8,44.6 	"/>
</g>
</svg>
