<?xml version="1.0" encoding="utf-8"?>
<!-- Generator: Adobe Illustrator 22.1.0, SVG Export Plug-In . SVG Version: 6.00 Build 0)  -->
<svg version="1.1" id="Слой_1" xmlns="http://www.w3.org/2000/svg" xmlns:xlink="http://www.w3.org/1999/xlink" x="0px" y="0px"
	 viewBox="0 0 120 120" style="enable-background:new 0 0 120 120;" xml:space="preserve">
<style type="text/css">
	.st0{fill:#E94E1B;stroke:#1D1D1B;stroke-width:0.2835;stroke-miterlimit:10;}
	.st1{fill:#333333;stroke:#1D1D1B;stroke-width:0.2835;stroke-miterlimit:10;}
	.st2{fill:#66CCFF;}
</style>
<path class="st0" d="M60,0"/>
<path class="st0" d="M0,60"/>
<path class="st0" d="M60,0"/>
<path class="st0" d="M120,60"/>
<path class="st0" d="M120,60"/>
<path class="st0" d="M60,120"/>
<path class="st0" d="M60,120"/>
<path class="st0" d="M0,60"/>
<rect x="17.4" y="17.7" transform="matrix(0.7071 -0.7071 0.7071 0.7071 -25.0445 60.0376)" class="st1" width="85.1" height="85.1"/>
<g>
	<path class="st2" d="M90.1,62.5c-1.9,7.1-5.9,13.4-11.5,18.2c-0.5,0-1.1,0-1.6,0c-7.6,0-11.9-4.7-14-8.4l6.9-4.1c0,0,2.3,5,6.7,5
		s6.2-1.5,6.2-4.8c0-4.1-14.2-5.6-16.4-12.7c-2.2-7.1,0.8-17.1,11-16.3c6.5,0.4,10.1,3.6,11.9,5.9l-6.9,4.9C81,46,74.9,46,73.7,49.5
		c-1.2,3.5,2.8,5.6,9,7.7C86,58.2,88.5,60.2,90.1,62.5z"/>
	<polygon class="st2" points="61.2,40.5 29.9,40.5 29.9,47.8 41.4,47.8 41.4,79.9 49.7,79.9 49.7,47.8 61.2,47.8 	"/>
</g>
</svg>
